<svg width="234" height="234" viewBox="0 0 234 234" fill="none" xmlns="http://www.w3.org/2000/svg">
<path d="M123.931 0.618041C122.707 0.618041 121.484 1.23004 120.87 2.45404C60.8939 -6.11496 8.26291 41.009 0.916914 100.374C-7.03909 162.798 37.6369 222.773 100.061 231.954C160.039 241.135 223.074 199.517 232.253 138.318C242.047 75.894 193.698 -5.50196 123.931 0.618041ZM220.015 146.886C205.94 199.518 145.963 232.567 93.9429 220.325C42.5349 208.697 6.42691 161.573 8.26291 108.941C10.7099 47.742 62.1189 6.12504 120.87 5.51404C121.482 6.12604 122.095 6.73804 123.931 6.73804C189.414 9.18604 236.539 85.6861 220.015 146.886Z" fill="black"/>
</svg>
