<svg width="323" height="331" viewBox="0 0 323 331" fill="none" xmlns="http://www.w3.org/2000/svg">
<path d="M181.907 324.105C139.043 323.541 93.923 317.901 52.1871 306.621C43.1631 303.8 46.5471 290.265 56.1351 292.52C93.359 301.544 131.147 307.184 169.5 308.876C207.851 310.569 259.176 311.132 289.067 283.496C304.295 269.396 303.731 244.016 304.859 224.841C306.551 196.64 305.987 167.877 304.295 139.677C303.167 111.477 300.347 82.7133 296.963 54.5134C295.272 39.2854 286.812 14.4695 294.144 0.933487C294.707 -0.19451 296.399 -0.19451 296.963 0.369488C309.935 10.5215 309.371 39.2854 311.627 54.5134C316.139 88.3533 318.395 121.629 320.087 155.469C321.779 196.64 330.24 260.936 299.219 293.648C272.147 323.541 219.131 324.105 181.907 324.105Z" fill="black"/>
<path d="M4.2472 311.697C-1.39279 307.749 -0.264793 300.981 5.93919 298.161C25.1152 290.266 42.5991 277.858 61.7751 269.961C67.4151 267.705 70.2351 276.165 65.7231 278.985C51.0591 288.009 36.3951 296.469 21.7312 305.493C26.2431 307.749 30.7551 310.005 35.2671 312.262C42.5991 315.082 49.9311 315.646 56.6991 319.03C61.7751 321.285 59.5191 328.054 55.5711 329.746C39.7791 335.385 17.2192 320.721 4.2472 311.697Z" fill="black"/>
</svg>
